<?xml version="1.0" encoding="utf-8"?>
<!-- Generator: Adobe Illustrator 26.0.2, SVG Export Plug-In . SVG Version: 6.00 Build 0)  -->
<svg version="1.1" id="Layer_1" xmlns="http://www.w3.org/2000/svg" xmlns:xlink="http://www.w3.org/1999/xlink" x="0px" y="0px"
	 width="180px" height="20.8px" viewBox="0 0 180 20.8" style="enable-background:new 0 0 180 20.8;" xml:space="preserve">
<style type="text/css">
	.st0{filter:url(#Adobe_OpacityMaskFilter);}
	.st1{fill-rule:evenodd;clip-rule:evenodd;fill:#FFFFFF;}
	.st2{mask:url(#mask-2_00000021113541306805119910000006414844653058864284_);fill-rule:evenodd;clip-rule:evenodd;}
</style>
<g id="Symbols">
	<g id="logos_x2F_FreePeople" transform="translate(0.000000, -8.000000)">
		<g id="Group-3" transform="translate(0.000000, 8.469586)">
			<g id="Clip-2">
			</g>
			<defs>
				<filter id="Adobe_OpacityMaskFilter" filterUnits="userSpaceOnUse" x="0" y="-0.5" width="180" height="20.8">
					<feColorMatrix  type="matrix" values="1 0 0 0 0  0 1 0 0 0  0 0 1 0 0  0 0 0 1 0"/>
				</filter>
			</defs>
			
				<mask maskUnits="userSpaceOnUse" x="0" y="-0.5" width="180" height="20.8" id="mask-2_00000021113541306805119910000006414844653058864284_">
				<g class="st0">
					<polygon id="path-1_00000181791852272259836330000017253920040326701699_" class="st1" points="0,-0.5 180,-0.5 180,20.4 
						0,20.4 					"/>
				</g>
			</mask>
			<path id="Fill-1" class="st2" d="M168.7,20h10.8l0.5-1.5h-9.3v-8.2h8.3l0.5-1.5h-8.8V1.5h8.6l0.5-1.5h-11.5l0.5,0.9L168.7,20
				L168.7,20z M153.6,20h9.9l0.6-1.5h-8.6V0h-2.4l0.5,0.9V20L153.6,20z M138.2,10.9V1.5h3.2c2.7,0,4.9,2.2,4.9,5
				c0,1.6-0.7,3.1-2,3.9c-0.6,0.4-1.3,0.6-2.1,0.5L138.2,10.9L138.2,10.9z M136.3,20h2v-7.6h3.3c1.1,0,2.1-0.2,3.1-0.9l0.9-0.5
				c1.7-1,2.8-2.9,2.8-5c0-3.3-2.6-6-5.9-6l0,0h-6.6l0.5,0.9L136.3,20L136.3,20z M125,17.9c-1.2,0.7-2.6,1.1-3.9,1
				c-4.9,0-8.8-4-8.8-9.1V9.7c-0.1-3.1,1.5-6,3.9-7.7c1.2-0.7,2.6-1.1,3.9-1c4.9,0,8.8,4.2,8.8,9.2l0,0
				C129.1,13.4,127.6,16.3,125,17.9L125,17.9z M126.1,18.5c4.7-2.8,6.2-9.1,3.6-14c-2.8-4.9-8.8-6.5-13.6-3.6l-0.9,0.5
				c-4.7,2.8-6.2,9.1-3.6,13.8c1.8,3.2,5,5,8.6,5c1.7,0,3.4-0.5,5-1.3L126.1,18.5z M94.8,20h10.8l0.5-1.5h-9.3v-8.2h8.3l0.5-1.5
				h-8.8V1.5h8.6l0.5-1.5H94.3l0.5,0.9V20L94.8,20z M79.5,10.9V1.5h3.2c2.7,0,4.9,2.2,4.9,5c0,1.6-0.7,3.1-2,3.9
				c-0.6,0.4-1.3,0.6-2.1,0.5C83.5,10.9,79.5,10.9,79.5,10.9z M77.5,20h2v-7.6h3.3c1.1,0,2.1-0.2,3.1-0.9l0.9-0.5
				c1.7-1,2.8-2.9,2.8-5c0-3.3-2.6-6-5.9-6l0,0H77l0.5,0.9V20L77.5,20z M50.9,20h10.8l0.5-1.5h-9.3v-8.2h8.3l0.5-1.5h-8.8V1.5h8.6
				L62,0H50.4l0.5,0.9L50.9,20L50.9,20z M34.3,20h10.8l0.5-1.5h-9.3v-8.2h8.3l0.5-1.5h-8.8V1.5h8.6L45.3,0H33.8l0.5,0.9V20L34.3,20z
				 M18.7,10.3V1.5h3.2c2.4,0,4.5,2,4.5,4.5c0.1,1.6-0.7,3.1-2,3.9c-0.5,0.2-1.1,0.4-1.7,0.4H18.7L18.7,10.3z M16.8,20h2v-8.3h2.2
				l6.5,8.2h2.4l-7-8.6c0.7,0,1.6-0.1,2.2-0.6l0.6-0.2c1.7-1,2.7-2.8,2.7-4.8C28.4,2.6,26,0,22.9,0l0,0h-6.6l0.5,0.9V20L16.8,20z
				 M0.5,20h2V11h7.8l0.6-1.5H2.4V1.5h8.3L11.4,0H0l0.5,0.9V20L0.5,20z"/>
		</g>
	</g>
</g>
</svg>
